<svg width="500" viewBox="0 0 680 780" xmlns="http://www.w3.org/2000/svg">
  <title>TradeRoot</title>
  <desc>TradeRoot logo: tree with circular leaf nodes above ground, candlestick chart patterns as roots below.</desc>

  <line x1="340" y1="160" x2="340" y2="395" stroke-width="8" stroke="#0a5c48" stroke-linecap="round" fill="none"></line>

  <line x1="340" y1="230" x2="242" y2="175" stroke-width="6" stroke="#0a5c48" stroke-linecap="round" fill="none"></line>
  <line x1="242" y1="175" x2="196" y2="138" stroke-width="4" stroke="#0a5c48" stroke-linecap="round" fill="none"></line>
  <line x1="242" y1="175" x2="258" y2="128" stroke-width="4" stroke="#0a5c48" stroke-linecap="round" fill="none"></line>

  <line x1="340" y1="210" x2="438" y2="163" stroke-width="6" stroke="#0a5c48" stroke-linecap="round" fill="none"></line>
  <line x1="438" y1="163" x2="484" y2="126" stroke-width="4" stroke="#0a5c48" stroke-linecap="round" fill="none"></line>
  <line x1="438" y1="163" x2="422" y2="118" stroke-width="4" stroke="#0a5c48" stroke-linecap="round" fill="none"></line>

  <line x1="340" y1="160" x2="340" y2="98" stroke-width="5" stroke="#0a5c48" stroke-linecap="round" fill="none"></line>

  <circle cx="340" cy="80" r="26" fill="#0a5c48"></circle>
  <circle cx="190" cy="118" r="22" fill="#1a8a6a"></circle>
  <circle cx="256" cy="108" r="19" fill="#5dcaa5"></circle>
  <circle cx="486" cy="106" r="22" fill="#0a5c48"></circle>
  <circle cx="422" cy="98" r="19" fill="#1a8a6a"></circle>
  <circle cx="236" cy="168" r="13" fill="#5dcaa5"></circle>
  <circle cx="444" cy="156" r="13" fill="#1a8a6a"></circle>

  <line x1="160" y1="395" x2="520" y2="395" stroke-width="1.5" stroke="#5dcaa5" fill="none"></line>

  <line x1="210" y1="395" x2="210" y2="430" stroke-width="3" stroke="#0a5c48" stroke-linecap="round" fill="none"></line>
  <line x1="265" y1="395" x2="265" y2="430" stroke-width="3" stroke="#0a5c48" stroke-linecap="round" fill="none"></line>
  <line x1="340" y1="395" x2="340" y2="430" stroke-width="3" stroke="#0a5c48" stroke-linecap="round" fill="none"></line>
  <line x1="415" y1="395" x2="415" y2="430" stroke-width="3" stroke="#0a5c48" stroke-linecap="round" fill="none"></line>
  <line x1="470" y1="395" x2="470" y2="430" stroke-width="3" stroke="#0a5c48" stroke-linecap="round" fill="none"></line>

  <line x1="310" y1="395" x2="210" y2="430" stroke-width="2.5" stroke="#0a5c48" stroke-linecap="round" fill="none"></line>
  <line x1="325" y1="395" x2="265" y2="430" stroke-width="2.5" stroke="#0a5c48" stroke-linecap="round" fill="none"></line>
  <line x1="355" y1="395" x2="415" y2="430" stroke-width="2.5" stroke="#0a5c48" stroke-linecap="round" fill="none"></line>
  <line x1="370" y1="395" x2="470" y2="430" stroke-width="2.5" stroke="#0a5c48" stroke-linecap="round" fill="none"></line>

  <line x1="210" y1="430" x2="210" y2="590" stroke-width="2" stroke="#0a5c48" stroke-linecap="round" fill="none"></line>
  <rect x="196" y="455" width="28" height="55" rx="3" stroke-width="2.5" stroke="#0a5c48" fill="none"></rect>

  <line x1="265" y1="430" x2="265" y2="600" stroke-width="2" stroke="#0a5c48" stroke-linecap="round" fill="none"></line>
  <rect x="251" y="460" width="28" height="68" rx="3" fill="#0a5c48" stroke="#0a5c48"></rect>

  <line x1="340" y1="430" x2="340" y2="595" stroke-width="2" stroke="#0a5c48" stroke-linecap="round" fill="none"></line>
  <rect x="326" y="452" width="28" height="62" rx="3" stroke-width="2.5" stroke="#0a5c48" fill="none"></rect>

  <line x1="415" y1="430" x2="415" y2="598" stroke-width="2" stroke="#0a5c48" stroke-linecap="round" fill="none"></line>
  <rect x="401" y="458" width="28" height="72" rx="3" fill="#0a5c48" stroke="#0a5c48"></rect>

  <line x1="470" y1="430" x2="470" y2="588" stroke-width="2" stroke="#0a5c48" stroke-linecap="round" fill="none"></line>
  <rect x="456" y="456" width="28" height="54" rx="3" fill="#0a5c48" stroke="#0a5c48"></rect>

  <text x="340" y="660" text-anchor="middle" font-family="Georgia, serif" font-size="58" font-weight="700" fill="#1a1a1a">TradeRoot</text>
  <text x="340" y="696" text-anchor="middle" font-family="Arial, sans-serif" font-size="16" fill="#555" letter-spacing="1.5">psychology of performance</text>
</svg>